<mxfile host="app.diagrams.net" modified="2020-07-25T15:40:22.826Z" agent="5.0 (Macintosh; Intel Mac OS X 10_15_5) AppleWebKit/537.36 (KHTML, like Gecko) Chrome/84.0.4147.89 Safari/537.36" etag="nlloAc_khuJFMhk6fHNB" version="13.5.3" type="github">
  <diagram id="Xz5VpQ-nctI5k1B7I2_a" name="Page-1">
    <mxGraphModel dx="807" dy="971" grid="1" gridSize="10" guides="1" tooltips="1" connect="1" arrows="1" fold="1" page="1" pageScale="1" pageWidth="827" pageHeight="1169" math="0" shadow="0">
      <root>
        <mxCell id="0" />
        <mxCell id="1" parent="0" />
        <mxCell id="ZlWjMlq3aEdvPCdujIfU-1" value="" style="shape=table;html=1;whiteSpace=wrap;startSize=0;container=1;collapsible=0;childLayout=tableLayout;" vertex="1" parent="1">
          <mxGeometry x="190" y="220" width="340" height="200" as="geometry" />
        </mxCell>
        <mxCell id="ZlWjMlq3aEdvPCdujIfU-2" value="" style="shape=partialRectangle;html=1;whiteSpace=wrap;collapsible=0;dropTarget=0;pointerEvents=0;fillColor=none;top=0;left=0;bottom=0;right=0;points=[[0,0.5],[1,0.5]];portConstraint=eastwest;" vertex="1" parent="ZlWjMlq3aEdvPCdujIfU-1">
          <mxGeometry width="340" height="40" as="geometry" />
        </mxCell>
        <mxCell id="ZlWjMlq3aEdvPCdujIfU-3" value="Process" style="shape=partialRectangle;html=1;whiteSpace=wrap;connectable=0;overflow=hidden;fillColor=none;top=0;left=0;bottom=0;right=0;" vertex="1" parent="ZlWjMlq3aEdvPCdujIfU-2">
          <mxGeometry width="113" height="40" as="geometry" />
        </mxCell>
        <mxCell id="ZlWjMlq3aEdvPCdujIfU-4" value="Arrival Time" style="shape=partialRectangle;html=1;whiteSpace=wrap;connectable=0;overflow=hidden;fillColor=none;top=0;left=0;bottom=0;right=0;" vertex="1" parent="ZlWjMlq3aEdvPCdujIfU-2">
          <mxGeometry x="113" width="114" height="40" as="geometry" />
        </mxCell>
        <mxCell id="ZlWjMlq3aEdvPCdujIfU-5" value="Burst&lt;br&gt;Time" style="shape=partialRectangle;html=1;whiteSpace=wrap;connectable=0;overflow=hidden;fillColor=none;top=0;left=0;bottom=0;right=0;" vertex="1" parent="ZlWjMlq3aEdvPCdujIfU-2">
          <mxGeometry x="227" width="113" height="40" as="geometry" />
        </mxCell>
        <mxCell id="ZlWjMlq3aEdvPCdujIfU-6" value="" style="shape=partialRectangle;html=1;whiteSpace=wrap;collapsible=0;dropTarget=0;pointerEvents=0;fillColor=none;top=0;left=0;bottom=0;right=0;points=[[0,0.5],[1,0.5]];portConstraint=eastwest;" vertex="1" parent="ZlWjMlq3aEdvPCdujIfU-1">
          <mxGeometry y="40" width="340" height="40" as="geometry" />
        </mxCell>
        <mxCell id="ZlWjMlq3aEdvPCdujIfU-7" value="P1" style="shape=partialRectangle;html=1;whiteSpace=wrap;connectable=0;overflow=hidden;fillColor=#fff2cc;top=0;left=0;bottom=0;right=0;strokeColor=#d6b656;" vertex="1" parent="ZlWjMlq3aEdvPCdujIfU-6">
          <mxGeometry width="113" height="40" as="geometry" />
        </mxCell>
        <mxCell id="ZlWjMlq3aEdvPCdujIfU-8" value="0" style="shape=partialRectangle;html=1;whiteSpace=wrap;connectable=0;overflow=hidden;fillColor=#fff2cc;top=0;left=0;bottom=0;right=0;strokeColor=#d6b656;" vertex="1" parent="ZlWjMlq3aEdvPCdujIfU-6">
          <mxGeometry x="113" width="114" height="40" as="geometry" />
        </mxCell>
        <mxCell id="ZlWjMlq3aEdvPCdujIfU-9" value="7" style="shape=partialRectangle;html=1;whiteSpace=wrap;connectable=0;overflow=hidden;fillColor=#fff2cc;top=0;left=0;bottom=0;right=0;strokeColor=#d6b656;" vertex="1" parent="ZlWjMlq3aEdvPCdujIfU-6">
          <mxGeometry x="227" width="113" height="40" as="geometry" />
        </mxCell>
        <mxCell id="ZlWjMlq3aEdvPCdujIfU-10" value="" style="shape=partialRectangle;html=1;whiteSpace=wrap;collapsible=0;dropTarget=0;pointerEvents=0;fillColor=none;top=0;left=0;bottom=0;right=0;points=[[0,0.5],[1,0.5]];portConstraint=eastwest;" vertex="1" parent="ZlWjMlq3aEdvPCdujIfU-1">
          <mxGeometry y="80" width="340" height="40" as="geometry" />
        </mxCell>
        <mxCell id="ZlWjMlq3aEdvPCdujIfU-11" value="P2" style="shape=partialRectangle;html=1;whiteSpace=wrap;connectable=0;overflow=hidden;fillColor=#f8cecc;top=0;left=0;bottom=0;right=0;strokeColor=#b85450;" vertex="1" parent="ZlWjMlq3aEdvPCdujIfU-10">
          <mxGeometry width="113" height="40" as="geometry" />
        </mxCell>
        <mxCell id="ZlWjMlq3aEdvPCdujIfU-12" value="2" style="shape=partialRectangle;html=1;whiteSpace=wrap;connectable=0;overflow=hidden;fillColor=#f8cecc;top=0;left=0;bottom=0;right=0;strokeColor=#b85450;" vertex="1" parent="ZlWjMlq3aEdvPCdujIfU-10">
          <mxGeometry x="113" width="114" height="40" as="geometry" />
        </mxCell>
        <mxCell id="ZlWjMlq3aEdvPCdujIfU-13" value="4" style="shape=partialRectangle;html=1;whiteSpace=wrap;connectable=0;overflow=hidden;fillColor=#f8cecc;top=0;left=0;bottom=0;right=0;strokeColor=#b85450;" vertex="1" parent="ZlWjMlq3aEdvPCdujIfU-10">
          <mxGeometry x="227" width="113" height="40" as="geometry" />
        </mxCell>
        <mxCell id="ZlWjMlq3aEdvPCdujIfU-14" value="" style="shape=partialRectangle;html=1;whiteSpace=wrap;collapsible=0;dropTarget=0;pointerEvents=0;fillColor=none;top=0;left=0;bottom=0;right=0;points=[[0,0.5],[1,0.5]];portConstraint=eastwest;" vertex="1" parent="ZlWjMlq3aEdvPCdujIfU-1">
          <mxGeometry y="120" width="340" height="40" as="geometry" />
        </mxCell>
        <mxCell id="ZlWjMlq3aEdvPCdujIfU-15" value="P3" style="shape=partialRectangle;html=1;whiteSpace=wrap;connectable=0;overflow=hidden;fillColor=#e1d5e7;top=0;left=0;bottom=0;right=0;strokeColor=#9673a6;" vertex="1" parent="ZlWjMlq3aEdvPCdujIfU-14">
          <mxGeometry width="113" height="40" as="geometry" />
        </mxCell>
        <mxCell id="ZlWjMlq3aEdvPCdujIfU-16" value="3" style="shape=partialRectangle;html=1;whiteSpace=wrap;connectable=0;overflow=hidden;fillColor=#e1d5e7;top=0;left=0;bottom=0;right=0;strokeColor=#9673a6;" vertex="1" parent="ZlWjMlq3aEdvPCdujIfU-14">
          <mxGeometry x="113" width="114" height="40" as="geometry" />
        </mxCell>
        <mxCell id="ZlWjMlq3aEdvPCdujIfU-17" value="2" style="shape=partialRectangle;html=1;whiteSpace=wrap;connectable=0;overflow=hidden;fillColor=#e1d5e7;top=0;left=0;bottom=0;right=0;strokeColor=#9673a6;" vertex="1" parent="ZlWjMlq3aEdvPCdujIfU-14">
          <mxGeometry x="227" width="113" height="40" as="geometry" />
        </mxCell>
        <mxCell id="ZlWjMlq3aEdvPCdujIfU-18" value="" style="shape=partialRectangle;html=1;whiteSpace=wrap;collapsible=0;dropTarget=0;pointerEvents=0;fillColor=none;top=0;left=0;bottom=0;right=0;points=[[0,0.5],[1,0.5]];portConstraint=eastwest;" vertex="1" parent="ZlWjMlq3aEdvPCdujIfU-1">
          <mxGeometry y="160" width="340" height="40" as="geometry" />
        </mxCell>
        <mxCell id="ZlWjMlq3aEdvPCdujIfU-19" value="P4" style="shape=partialRectangle;html=1;whiteSpace=wrap;connectable=0;overflow=hidden;fillColor=#dae8fc;top=0;left=0;bottom=0;right=0;strokeColor=#6c8ebf;" vertex="1" parent="ZlWjMlq3aEdvPCdujIfU-18">
          <mxGeometry width="113" height="40" as="geometry" />
        </mxCell>
        <mxCell id="ZlWjMlq3aEdvPCdujIfU-20" value="9" style="shape=partialRectangle;html=1;whiteSpace=wrap;connectable=0;overflow=hidden;fillColor=#dae8fc;top=0;left=0;bottom=0;right=0;strokeColor=#6c8ebf;" vertex="1" parent="ZlWjMlq3aEdvPCdujIfU-18">
          <mxGeometry x="113" width="114" height="40" as="geometry" />
        </mxCell>
        <mxCell id="ZlWjMlq3aEdvPCdujIfU-21" value="1" style="shape=partialRectangle;html=1;whiteSpace=wrap;connectable=0;overflow=hidden;fillColor=#dae8fc;top=0;left=0;bottom=0;right=0;strokeColor=#6c8ebf;" vertex="1" parent="ZlWjMlq3aEdvPCdujIfU-18">
          <mxGeometry x="227" width="113" height="40" as="geometry" />
        </mxCell>
        <mxCell id="ZlWjMlq3aEdvPCdujIfU-22" value="" style="shape=table;html=1;whiteSpace=wrap;startSize=0;container=1;collapsible=0;childLayout=tableLayout;" vertex="1" parent="1">
          <mxGeometry x="190" y="480" width="470" height="120" as="geometry" />
        </mxCell>
        <mxCell id="ZlWjMlq3aEdvPCdujIfU-23" style="shape=partialRectangle;html=1;whiteSpace=wrap;collapsible=0;dropTarget=0;pointerEvents=0;fillColor=none;top=0;left=0;bottom=0;right=0;points=[[0,0.5],[1,0.5]];portConstraint=eastwest;" vertex="1" parent="ZlWjMlq3aEdvPCdujIfU-22">
          <mxGeometry width="470" height="40" as="geometry" />
        </mxCell>
        <mxCell id="ZlWjMlq3aEdvPCdujIfU-24" value="P1" style="shape=partialRectangle;html=1;whiteSpace=wrap;connectable=0;overflow=hidden;top=0;left=0;bottom=0;right=0;" vertex="1" parent="ZlWjMlq3aEdvPCdujIfU-23">
          <mxGeometry width="33" height="40" as="geometry" />
        </mxCell>
        <mxCell id="ZlWjMlq3aEdvPCdujIfU-25" style="shape=partialRectangle;html=1;whiteSpace=wrap;connectable=0;overflow=hidden;top=0;left=0;bottom=0;right=0;" vertex="1" parent="ZlWjMlq3aEdvPCdujIfU-23">
          <mxGeometry x="33" width="34" height="40" as="geometry" />
        </mxCell>
        <mxCell id="ZlWjMlq3aEdvPCdujIfU-26" value="P2" style="shape=partialRectangle;html=1;whiteSpace=wrap;connectable=0;overflow=hidden;top=0;left=0;bottom=0;right=0;" vertex="1" parent="ZlWjMlq3aEdvPCdujIfU-23">
          <mxGeometry x="67" width="34" height="40" as="geometry" />
        </mxCell>
        <mxCell id="ZlWjMlq3aEdvPCdujIfU-27" value="P3" style="shape=partialRectangle;html=1;whiteSpace=wrap;connectable=0;overflow=hidden;top=0;left=0;bottom=0;right=0;" vertex="1" parent="ZlWjMlq3aEdvPCdujIfU-23">
          <mxGeometry x="101" width="33" height="40" as="geometry" />
        </mxCell>
        <mxCell id="ZlWjMlq3aEdvPCdujIfU-28" style="shape=partialRectangle;html=1;whiteSpace=wrap;connectable=0;overflow=hidden;top=0;left=0;bottom=0;right=0;" vertex="1" parent="ZlWjMlq3aEdvPCdujIfU-23">
          <mxGeometry x="134" width="34" height="40" as="geometry" />
        </mxCell>
        <mxCell id="ZlWjMlq3aEdvPCdujIfU-29" value="" style="shape=partialRectangle;html=1;whiteSpace=wrap;connectable=0;overflow=hidden;top=0;left=0;bottom=0;right=0;" vertex="1" parent="ZlWjMlq3aEdvPCdujIfU-23">
          <mxGeometry x="168" width="34" height="40" as="geometry" />
        </mxCell>
        <mxCell id="ZlWjMlq3aEdvPCdujIfU-30" style="shape=partialRectangle;html=1;whiteSpace=wrap;connectable=0;overflow=hidden;top=0;left=0;bottom=0;right=0;" vertex="1" parent="ZlWjMlq3aEdvPCdujIfU-23">
          <mxGeometry x="202" width="33" height="40" as="geometry" />
        </mxCell>
        <mxCell id="ZlWjMlq3aEdvPCdujIfU-31" style="shape=partialRectangle;html=1;whiteSpace=wrap;connectable=0;overflow=hidden;top=0;left=0;bottom=0;right=0;" vertex="1" parent="ZlWjMlq3aEdvPCdujIfU-23">
          <mxGeometry x="235" width="33" height="40" as="geometry" />
        </mxCell>
        <mxCell id="ZlWjMlq3aEdvPCdujIfU-32" style="shape=partialRectangle;html=1;whiteSpace=wrap;connectable=0;overflow=hidden;top=0;left=0;bottom=0;right=0;" vertex="1" parent="ZlWjMlq3aEdvPCdujIfU-23">
          <mxGeometry x="268" width="34" height="40" as="geometry" />
        </mxCell>
        <mxCell id="ZlWjMlq3aEdvPCdujIfU-33" value="P4" style="shape=partialRectangle;html=1;whiteSpace=wrap;connectable=0;overflow=hidden;top=0;left=0;bottom=0;right=0;" vertex="1" parent="ZlWjMlq3aEdvPCdujIfU-23">
          <mxGeometry x="302" width="34" height="40" as="geometry" />
        </mxCell>
        <mxCell id="ZlWjMlq3aEdvPCdujIfU-34" style="shape=partialRectangle;html=1;whiteSpace=wrap;connectable=0;overflow=hidden;top=0;left=0;bottom=0;right=0;" vertex="1" parent="ZlWjMlq3aEdvPCdujIfU-23">
          <mxGeometry x="336" width="33" height="40" as="geometry" />
        </mxCell>
        <mxCell id="ZlWjMlq3aEdvPCdujIfU-35" style="shape=partialRectangle;html=1;whiteSpace=wrap;connectable=0;overflow=hidden;top=0;left=0;bottom=0;right=0;" vertex="1" parent="ZlWjMlq3aEdvPCdujIfU-23">
          <mxGeometry x="369" width="34" height="40" as="geometry" />
        </mxCell>
        <mxCell id="ZlWjMlq3aEdvPCdujIfU-36" style="shape=partialRectangle;html=1;whiteSpace=wrap;connectable=0;overflow=hidden;top=0;left=0;bottom=0;right=0;" vertex="1" parent="ZlWjMlq3aEdvPCdujIfU-23">
          <mxGeometry x="403" width="34" height="40" as="geometry" />
        </mxCell>
        <mxCell id="ZlWjMlq3aEdvPCdujIfU-37" style="shape=partialRectangle;html=1;whiteSpace=wrap;connectable=0;overflow=hidden;top=0;left=0;bottom=0;right=0;" vertex="1" parent="ZlWjMlq3aEdvPCdujIfU-23">
          <mxGeometry x="437" width="33" height="40" as="geometry" />
        </mxCell>
        <mxCell id="ZlWjMlq3aEdvPCdujIfU-38" value="" style="shape=partialRectangle;html=1;whiteSpace=wrap;collapsible=0;dropTarget=0;pointerEvents=0;fillColor=none;top=0;left=0;bottom=0;right=0;points=[[0,0.5],[1,0.5]];portConstraint=eastwest;" vertex="1" parent="ZlWjMlq3aEdvPCdujIfU-22">
          <mxGeometry y="40" width="470" height="40" as="geometry" />
        </mxCell>
        <mxCell id="ZlWjMlq3aEdvPCdujIfU-39" value="" style="shape=partialRectangle;html=1;whiteSpace=wrap;connectable=0;overflow=hidden;fillColor=#fff2cc;top=0;left=0;bottom=0;right=0;strokeColor=#d6b656;" vertex="1" parent="ZlWjMlq3aEdvPCdujIfU-38">
          <mxGeometry width="33" height="40" as="geometry" />
        </mxCell>
        <mxCell id="ZlWjMlq3aEdvPCdujIfU-40" value="" style="shape=partialRectangle;html=1;whiteSpace=wrap;connectable=0;overflow=hidden;fillColor=#fff2cc;top=0;left=0;bottom=0;right=0;strokeColor=#d6b656;" vertex="1" parent="ZlWjMlq3aEdvPCdujIfU-38">
          <mxGeometry x="33" width="34" height="40" as="geometry" />
        </mxCell>
        <mxCell id="ZlWjMlq3aEdvPCdujIfU-41" value="" style="shape=partialRectangle;html=1;whiteSpace=wrap;connectable=0;overflow=hidden;fillColor=#fff2cc;top=0;left=0;bottom=0;right=0;strokeColor=#d6b656;" vertex="1" parent="ZlWjMlq3aEdvPCdujIfU-38">
          <mxGeometry x="67" width="34" height="40" as="geometry" />
        </mxCell>
        <mxCell id="ZlWjMlq3aEdvPCdujIfU-42" value="" style="shape=partialRectangle;html=1;whiteSpace=wrap;connectable=0;overflow=hidden;fillColor=#f8cecc;top=0;left=0;bottom=0;right=0;strokeColor=#b85450;" vertex="1" parent="ZlWjMlq3aEdvPCdujIfU-38">
          <mxGeometry x="101" width="33" height="40" as="geometry" />
        </mxCell>
        <mxCell id="ZlWjMlq3aEdvPCdujIfU-43" value="" style="shape=partialRectangle;html=1;whiteSpace=wrap;connectable=0;overflow=hidden;fillColor=#fff2cc;top=0;left=0;bottom=0;right=0;strokeColor=#d6b656;" vertex="1" parent="ZlWjMlq3aEdvPCdujIfU-38">
          <mxGeometry x="134" width="34" height="40" as="geometry" />
        </mxCell>
        <mxCell id="ZlWjMlq3aEdvPCdujIfU-44" value="" style="shape=partialRectangle;html=1;whiteSpace=wrap;connectable=0;overflow=hidden;fillColor=#e1d5e7;top=0;left=0;bottom=0;right=0;strokeColor=#9673a6;" vertex="1" parent="ZlWjMlq3aEdvPCdujIfU-38">
          <mxGeometry x="168" width="34" height="40" as="geometry" />
        </mxCell>
        <mxCell id="ZlWjMlq3aEdvPCdujIfU-45" value="" style="shape=partialRectangle;html=1;whiteSpace=wrap;connectable=0;overflow=hidden;fillColor=#f8cecc;top=0;left=0;bottom=0;right=0;strokeColor=#b85450;" vertex="1" parent="ZlWjMlq3aEdvPCdujIfU-38">
          <mxGeometry x="202" width="33" height="40" as="geometry" />
        </mxCell>
        <mxCell id="ZlWjMlq3aEdvPCdujIfU-46" value="" style="shape=partialRectangle;html=1;whiteSpace=wrap;connectable=0;overflow=hidden;fillColor=#fff2cc;top=0;left=0;bottom=0;right=0;strokeColor=#d6b656;" vertex="1" parent="ZlWjMlq3aEdvPCdujIfU-38">
          <mxGeometry x="235" width="33" height="40" as="geometry" />
        </mxCell>
        <mxCell id="ZlWjMlq3aEdvPCdujIfU-47" value="" style="shape=partialRectangle;html=1;whiteSpace=wrap;connectable=0;overflow=hidden;fillColor=#e1d5e7;top=0;left=0;bottom=0;right=0;strokeColor=#9673a6;" vertex="1" parent="ZlWjMlq3aEdvPCdujIfU-38">
          <mxGeometry x="268" width="34" height="40" as="geometry" />
        </mxCell>
        <mxCell id="ZlWjMlq3aEdvPCdujIfU-48" value="" style="shape=partialRectangle;html=1;whiteSpace=wrap;connectable=0;overflow=hidden;fillColor=#f8cecc;top=0;left=0;bottom=0;right=0;strokeColor=#b85450;" vertex="1" parent="ZlWjMlq3aEdvPCdujIfU-38">
          <mxGeometry x="302" width="34" height="40" as="geometry" />
        </mxCell>
        <mxCell id="ZlWjMlq3aEdvPCdujIfU-49" value="" style="shape=partialRectangle;html=1;whiteSpace=wrap;connectable=0;overflow=hidden;fillColor=#fff2cc;top=0;left=0;bottom=0;right=0;strokeColor=#d6b656;" vertex="1" parent="ZlWjMlq3aEdvPCdujIfU-38">
          <mxGeometry x="336" width="33" height="40" as="geometry" />
        </mxCell>
        <mxCell id="ZlWjMlq3aEdvPCdujIfU-50" value="" style="shape=partialRectangle;html=1;whiteSpace=wrap;connectable=0;overflow=hidden;fillColor=#dae8fc;top=0;left=0;bottom=0;right=0;strokeColor=#6c8ebf;" vertex="1" parent="ZlWjMlq3aEdvPCdujIfU-38">
          <mxGeometry x="369" width="34" height="40" as="geometry" />
        </mxCell>
        <mxCell id="ZlWjMlq3aEdvPCdujIfU-51" value="" style="shape=partialRectangle;html=1;whiteSpace=wrap;connectable=0;overflow=hidden;fillColor=#f8cecc;top=0;left=0;bottom=0;right=0;strokeColor=#b85450;" vertex="1" parent="ZlWjMlq3aEdvPCdujIfU-38">
          <mxGeometry x="403" width="34" height="40" as="geometry" />
        </mxCell>
        <mxCell id="ZlWjMlq3aEdvPCdujIfU-52" value="" style="shape=partialRectangle;html=1;whiteSpace=wrap;connectable=0;overflow=hidden;fillColor=#fff2cc;top=0;left=0;bottom=0;right=0;strokeColor=#d6b656;" vertex="1" parent="ZlWjMlq3aEdvPCdujIfU-38">
          <mxGeometry x="437" width="33" height="40" as="geometry" />
        </mxCell>
        <mxCell id="ZlWjMlq3aEdvPCdujIfU-53" value="" style="shape=partialRectangle;html=1;whiteSpace=wrap;collapsible=0;dropTarget=0;pointerEvents=0;fillColor=none;top=0;left=0;bottom=0;right=0;points=[[0,0.5],[1,0.5]];portConstraint=eastwest;" vertex="1" parent="ZlWjMlq3aEdvPCdujIfU-22">
          <mxGeometry y="80" width="470" height="40" as="geometry" />
        </mxCell>
        <mxCell id="ZlWjMlq3aEdvPCdujIfU-54" value="P1" style="shape=partialRectangle;html=1;whiteSpace=wrap;connectable=0;overflow=hidden;fillColor=none;top=0;left=0;bottom=0;right=0;" vertex="1" parent="ZlWjMlq3aEdvPCdujIfU-53">
          <mxGeometry width="33" height="40" as="geometry" />
        </mxCell>
        <mxCell id="ZlWjMlq3aEdvPCdujIfU-55" value="" style="shape=partialRectangle;html=1;whiteSpace=wrap;connectable=0;overflow=hidden;fillColor=none;top=0;left=0;bottom=0;right=0;" vertex="1" parent="ZlWjMlq3aEdvPCdujIfU-53">
          <mxGeometry x="33" width="34" height="40" as="geometry" />
        </mxCell>
        <mxCell id="ZlWjMlq3aEdvPCdujIfU-56" value="" style="shape=partialRectangle;html=1;whiteSpace=wrap;connectable=0;overflow=hidden;fillColor=none;top=0;left=0;bottom=0;right=0;" vertex="1" parent="ZlWjMlq3aEdvPCdujIfU-53">
          <mxGeometry x="67" width="34" height="40" as="geometry" />
        </mxCell>
        <mxCell id="ZlWjMlq3aEdvPCdujIfU-57" value="P2" style="shape=partialRectangle;html=1;whiteSpace=wrap;connectable=0;overflow=hidden;fillColor=none;top=0;left=0;bottom=0;right=0;" vertex="1" parent="ZlWjMlq3aEdvPCdujIfU-53">
          <mxGeometry x="101" width="33" height="40" as="geometry" />
        </mxCell>
        <mxCell id="ZlWjMlq3aEdvPCdujIfU-58" value="P1" style="shape=partialRectangle;html=1;whiteSpace=wrap;connectable=0;overflow=hidden;fillColor=none;top=0;left=0;bottom=0;right=0;" vertex="1" parent="ZlWjMlq3aEdvPCdujIfU-53">
          <mxGeometry x="134" width="34" height="40" as="geometry" />
        </mxCell>
        <mxCell id="ZlWjMlq3aEdvPCdujIfU-59" value="P3" style="shape=partialRectangle;html=1;whiteSpace=wrap;connectable=0;overflow=hidden;fillColor=none;top=0;left=0;bottom=0;right=0;" vertex="1" parent="ZlWjMlq3aEdvPCdujIfU-53">
          <mxGeometry x="168" width="34" height="40" as="geometry" />
        </mxCell>
        <mxCell id="ZlWjMlq3aEdvPCdujIfU-60" value="P2" style="shape=partialRectangle;html=1;whiteSpace=wrap;connectable=0;overflow=hidden;fillColor=none;top=0;left=0;bottom=0;right=0;" vertex="1" parent="ZlWjMlq3aEdvPCdujIfU-53">
          <mxGeometry x="202" width="33" height="40" as="geometry" />
        </mxCell>
        <mxCell id="ZlWjMlq3aEdvPCdujIfU-61" value="P1" style="shape=partialRectangle;html=1;whiteSpace=wrap;connectable=0;overflow=hidden;fillColor=none;top=0;left=0;bottom=0;right=0;" vertex="1" parent="ZlWjMlq3aEdvPCdujIfU-53">
          <mxGeometry x="235" width="33" height="40" as="geometry" />
        </mxCell>
        <mxCell id="ZlWjMlq3aEdvPCdujIfU-62" value="P3" style="shape=partialRectangle;html=1;whiteSpace=wrap;connectable=0;overflow=hidden;fillColor=none;top=0;left=0;bottom=0;right=0;" vertex="1" parent="ZlWjMlq3aEdvPCdujIfU-53">
          <mxGeometry x="268" width="34" height="40" as="geometry" />
        </mxCell>
        <mxCell id="ZlWjMlq3aEdvPCdujIfU-63" value="P2" style="shape=partialRectangle;html=1;whiteSpace=wrap;connectable=0;overflow=hidden;fillColor=none;top=0;left=0;bottom=0;right=0;" vertex="1" parent="ZlWjMlq3aEdvPCdujIfU-53">
          <mxGeometry x="302" width="34" height="40" as="geometry" />
        </mxCell>
        <mxCell id="ZlWjMlq3aEdvPCdujIfU-64" value="P1" style="shape=partialRectangle;html=1;whiteSpace=wrap;connectable=0;overflow=hidden;fillColor=none;top=0;left=0;bottom=0;right=0;" vertex="1" parent="ZlWjMlq3aEdvPCdujIfU-53">
          <mxGeometry x="336" width="33" height="40" as="geometry" />
        </mxCell>
        <mxCell id="ZlWjMlq3aEdvPCdujIfU-65" value="P4" style="shape=partialRectangle;html=1;whiteSpace=wrap;connectable=0;overflow=hidden;fillColor=none;top=0;left=0;bottom=0;right=0;" vertex="1" parent="ZlWjMlq3aEdvPCdujIfU-53">
          <mxGeometry x="369" width="34" height="40" as="geometry" />
        </mxCell>
        <mxCell id="ZlWjMlq3aEdvPCdujIfU-66" value="P2" style="shape=partialRectangle;html=1;whiteSpace=wrap;connectable=0;overflow=hidden;fillColor=none;top=0;left=0;bottom=0;right=0;" vertex="1" parent="ZlWjMlq3aEdvPCdujIfU-53">
          <mxGeometry x="403" width="34" height="40" as="geometry" />
        </mxCell>
        <mxCell id="ZlWjMlq3aEdvPCdujIfU-67" value="P1" style="shape=partialRectangle;html=1;whiteSpace=wrap;connectable=0;overflow=hidden;fillColor=none;top=0;left=0;bottom=0;right=0;" vertex="1" parent="ZlWjMlq3aEdvPCdujIfU-53">
          <mxGeometry x="437" width="33" height="40" as="geometry" />
        </mxCell>
        <mxCell id="ZlWjMlq3aEdvPCdujIfU-68" value="FIFO" style="text;html=1;align=center;verticalAlign=middle;resizable=0;points=[];autosize=1;" vertex="1" parent="1">
          <mxGeometry x="110" y="630" width="40" height="20" as="geometry" />
        </mxCell>
        <mxCell id="ZlWjMlq3aEdvPCdujIfU-69" value="Schedule" style="text;html=1;align=center;verticalAlign=middle;resizable=0;points=[];autosize=1;" vertex="1" parent="1">
          <mxGeometry x="105" y="575" width="70" height="20" as="geometry" />
        </mxCell>
        <mxCell id="ZlWjMlq3aEdvPCdujIfU-70" style="rounded=0;orthogonalLoop=1;jettySize=auto;html=1;" edge="1" parent="1" source="ZlWjMlq3aEdvPCdujIfU-71">
          <mxGeometry relative="1" as="geometry">
            <mxPoint x="640" y="260" as="targetPoint" />
          </mxGeometry>
        </mxCell>
        <mxCell id="ZlWjMlq3aEdvPCdujIfU-71" value="" style="shape=curlyBracket;whiteSpace=wrap;html=1;rounded=1;direction=south;" vertex="1" parent="1">
          <mxGeometry x="523" y="450" width="37" height="20" as="geometry" />
        </mxCell>
        <mxCell id="ZlWjMlq3aEdvPCdujIfU-72" value="&lt;font style=&quot;font-size: 16px&quot;&gt;Time Slice = 1&lt;/font&gt;" style="text;html=1;align=center;verticalAlign=middle;resizable=0;points=[];autosize=1;" vertex="1" parent="1">
          <mxGeometry x="580" y="230" width="120" height="20" as="geometry" />
        </mxCell>
        <mxCell id="ZlWjMlq3aEdvPCdujIfU-73" value="" style="shape=table;html=1;whiteSpace=wrap;startSize=0;container=1;collapsible=0;childLayout=tableLayout;" vertex="1" parent="1">
          <mxGeometry x="190" y="630" width="470" height="90" as="geometry" />
        </mxCell>
        <mxCell id="ZlWjMlq3aEdvPCdujIfU-74" value="" style="shape=partialRectangle;html=1;whiteSpace=wrap;collapsible=0;dropTarget=0;pointerEvents=0;fillColor=none;top=0;left=0;bottom=0;right=0;points=[[0,0.5],[1,0.5]];portConstraint=eastwest;" vertex="1" parent="ZlWjMlq3aEdvPCdujIfU-73">
          <mxGeometry width="470" height="90" as="geometry" />
        </mxCell>
        <mxCell id="ZlWjMlq3aEdvPCdujIfU-75" value="" style="shape=partialRectangle;html=1;whiteSpace=wrap;connectable=0;overflow=hidden;fillColor=none;top=0;left=0;bottom=0;right=0;" vertex="1" parent="ZlWjMlq3aEdvPCdujIfU-74">
          <mxGeometry width="34" height="90" as="geometry" />
        </mxCell>
        <mxCell id="ZlWjMlq3aEdvPCdujIfU-76" value="" style="shape=partialRectangle;html=1;whiteSpace=wrap;connectable=0;overflow=hidden;fillColor=none;top=0;left=0;bottom=0;right=0;" vertex="1" parent="ZlWjMlq3aEdvPCdujIfU-74">
          <mxGeometry x="34" width="33" height="90" as="geometry" />
        </mxCell>
        <mxCell id="ZlWjMlq3aEdvPCdujIfU-77" value="P2" style="shape=partialRectangle;html=1;whiteSpace=wrap;connectable=0;overflow=hidden;fillColor=none;top=0;left=0;bottom=0;right=0;" vertex="1" parent="ZlWjMlq3aEdvPCdujIfU-74">
          <mxGeometry x="67" width="34" height="90" as="geometry" />
        </mxCell>
        <mxCell id="ZlWjMlq3aEdvPCdujIfU-78" value="P1&lt;br&gt;P3" style="shape=partialRectangle;html=1;whiteSpace=wrap;connectable=0;overflow=hidden;fillColor=none;top=0;left=0;bottom=0;right=0;" vertex="1" parent="ZlWjMlq3aEdvPCdujIfU-74">
          <mxGeometry x="101" width="33" height="90" as="geometry" />
        </mxCell>
        <mxCell id="ZlWjMlq3aEdvPCdujIfU-79" value="P3&lt;br&gt;P2" style="shape=partialRectangle;html=1;whiteSpace=wrap;connectable=0;overflow=hidden;fillColor=none;top=0;left=0;bottom=0;right=0;" vertex="1" parent="ZlWjMlq3aEdvPCdujIfU-74">
          <mxGeometry x="134" width="34" height="90" as="geometry" />
        </mxCell>
        <mxCell id="ZlWjMlq3aEdvPCdujIfU-80" value="P2&lt;br&gt;P1" style="shape=partialRectangle;html=1;whiteSpace=wrap;connectable=0;overflow=hidden;fillColor=none;top=0;left=0;bottom=0;right=0;" vertex="1" parent="ZlWjMlq3aEdvPCdujIfU-74">
          <mxGeometry x="168" width="33" height="90" as="geometry" />
        </mxCell>
        <mxCell id="ZlWjMlq3aEdvPCdujIfU-81" value="P1&lt;br&gt;P3" style="shape=partialRectangle;html=1;whiteSpace=wrap;connectable=0;overflow=hidden;fillColor=none;top=0;left=0;bottom=0;right=0;" vertex="1" parent="ZlWjMlq3aEdvPCdujIfU-74">
          <mxGeometry x="201" width="34" height="90" as="geometry" />
        </mxCell>
        <mxCell id="ZlWjMlq3aEdvPCdujIfU-82" value="P3&lt;br&gt;P2" style="shape=partialRectangle;html=1;whiteSpace=wrap;connectable=0;overflow=hidden;fillColor=none;top=0;left=0;bottom=0;right=0;" vertex="1" parent="ZlWjMlq3aEdvPCdujIfU-74">
          <mxGeometry x="235" width="34" height="90" as="geometry" />
        </mxCell>
        <mxCell id="ZlWjMlq3aEdvPCdujIfU-83" value="P2&lt;br&gt;P1" style="shape=partialRectangle;html=1;whiteSpace=wrap;connectable=0;overflow=hidden;fillColor=none;top=0;left=0;bottom=0;right=0;" vertex="1" parent="ZlWjMlq3aEdvPCdujIfU-74">
          <mxGeometry x="269" width="33" height="90" as="geometry" />
        </mxCell>
        <mxCell id="ZlWjMlq3aEdvPCdujIfU-84" value="P1&lt;br&gt;P4" style="shape=partialRectangle;html=1;whiteSpace=wrap;connectable=0;overflow=hidden;fillColor=none;top=0;left=0;bottom=0;right=0;" vertex="1" parent="ZlWjMlq3aEdvPCdujIfU-74">
          <mxGeometry x="302" width="34" height="90" as="geometry" />
        </mxCell>
        <mxCell id="ZlWjMlq3aEdvPCdujIfU-85" value="P4&lt;br&gt;P2" style="shape=partialRectangle;html=1;whiteSpace=wrap;connectable=0;overflow=hidden;fillColor=none;top=0;left=0;bottom=0;right=0;" vertex="1" parent="ZlWjMlq3aEdvPCdujIfU-74">
          <mxGeometry x="336" width="33" height="90" as="geometry" />
        </mxCell>
        <mxCell id="ZlWjMlq3aEdvPCdujIfU-86" value="P2&lt;br&gt;P1" style="shape=partialRectangle;html=1;whiteSpace=wrap;connectable=0;overflow=hidden;fillColor=none;top=0;left=0;bottom=0;right=0;" vertex="1" parent="ZlWjMlq3aEdvPCdujIfU-74">
          <mxGeometry x="369" width="34" height="90" as="geometry" />
        </mxCell>
        <mxCell id="ZlWjMlq3aEdvPCdujIfU-87" value="P1" style="shape=partialRectangle;html=1;whiteSpace=wrap;connectable=0;overflow=hidden;fillColor=none;top=0;left=0;bottom=0;right=0;" vertex="1" parent="ZlWjMlq3aEdvPCdujIfU-74">
          <mxGeometry x="403" width="33" height="90" as="geometry" />
        </mxCell>
        <mxCell id="ZlWjMlq3aEdvPCdujIfU-88" value="" style="shape=partialRectangle;html=1;whiteSpace=wrap;connectable=0;overflow=hidden;fillColor=none;top=0;left=0;bottom=0;right=0;" vertex="1" parent="ZlWjMlq3aEdvPCdujIfU-74">
          <mxGeometry x="436" width="34" height="90" as="geometry" />
        </mxCell>
        <mxCell id="ZlWjMlq3aEdvPCdujIfU-89" value="Arrival" style="text;html=1;align=center;verticalAlign=middle;resizable=0;points=[];autosize=1;" vertex="1" parent="1">
          <mxGeometry x="105" y="480" width="50" height="20" as="geometry" />
        </mxCell>
        <mxCell id="ZlWjMlq3aEdvPCdujIfU-90" value="time slice" style="text;html=1;align=center;verticalAlign=middle;resizable=0;points=[];autosize=1;" vertex="1" parent="1">
          <mxGeometry x="105" y="530" width="70" height="20" as="geometry" />
        </mxCell>
      </root>
    </mxGraphModel>
  </diagram>
</mxfile>
